<?xml version="1.0" encoding="utf-8"?>
<!-- Generator: Adobe Illustrator 22.1.0, SVG Export Plug-In . SVG Version: 6.00 Build 0)  -->
<svg version="1.1" id="Layer_1" xmlns="http://www.w3.org/2000/svg" xmlns:xlink="http://www.w3.org/1999/xlink" x="0px" y="0px"
	 viewBox="0 0 829 720.5" style="enable-background:new 0 0 829 720.5;" xml:space="preserve">
<g>
	<path d="M0,461.3c0-0.3,0-0.6,0-1c1.4-1.5,0.7-3.5,1.2-5.3c1.3-0.5,2.5-1.1,3.8-1.6c-0.2-0.9-0.4-1.6-0.6-2.4
		c-1.4-5.3-2.9-10.6-2.5-16.2c0.2-3,1.5-4.5,4.6-4.7c2.4-0.1,4.8,0.3,6.9,1.5c5.8,3.1,11.7,6.3,17.5,9.4c0.8,0.4,1.6,0.8,2.5,1.2
		c0.8-1.4,0.7-2.6,0.4-3.7c-1.6-6.6-4.8-12.2-10.7-15.8c-2-1.2-3.1-2.9-3.8-5c-3.7-11.4-8-22.6-13.2-33.4c-1.6-3.3-3.2-6.6-3.9-10.3
		c-0.9-4.7-0.1-6.5,4-8.7c0.3-0.1,0.6-0.2,1-0.4c1.9,3.7,3.8,7.4,5.6,11.1c1.2-0.4,1.7-1,1.5-2.1c-0.1-0.6-0.3-1.2-0.5-1.8
		c-1.3-4.9-2.6-9.7-3.9-14.6c-0.8-2.9-0.6-5.8,0.5-8.7c1-2.5,2.1-3.1,4.7-3.3c5.3-0.3,10.1,1.2,14.8,3.5c1.1,0.6,2.3,1.1,3.6,1.7
		c0-0.6,0-0.9,0-1.2c-1-5-2-10-2.9-15c-1.6-8.5-3.4-17.1-4.7-25.6c-0.9-5.9-0.3-8.9,6.3-11.7c0.8-0.3,1.6-0.7,2.4-1
		c1.2-0.4,1.5-1.3,1.4-2.5c-0.4-3.2-0.9-6.3-1.2-9.5c-0.3-3.4-0.7-6.8-0.5-10.3c0.1-3.7,2.4-5,5.9-3.9c2,0.6,3.9,1.4,5.9,2.1
		c0.6,0.2,1.2,0.3,1.9,0.5c-0.3-0.8-0.5-1.3-0.6-1.8c-1.6-4.6-3.5-9.1-4.3-13.9c-0.2-1.4,0-2.5,1-3.5c2.3-2.2,3.5-4.9,4.1-7.9
		c0.3-1.3,0.5-2.5,0-3.9c-0.7-1.8-1-3.8-1.5-5.9c0.7,0.1,1.3,0.1,1.9,0.2c2.4,0.4,4.8,1,7.3,1.4c2.2,0.3,4.4,0.6,6.7-0.5
		c-0.1-2.8-0.2-5.6-0.4-8.4c-0.3-3.6,0-7.2,1-10.7c1-3.4,3.6-4.9,7.1-4c2.5,0.6,4.8,1.7,6.5,3.8c2.2,2.6,4.9,4.7,8,6.3
		c2.2-2.4,2.7-5.2,2-8.1c-0.8-3.7-1.7-7.5-2.5-11.2c-1.1-5.3-2.6-10.5-2.2-16.1c0.2-3.1,0.7-6,1.9-8.9c0.9-2.3,2.3-3,4.8-2.6
		c1.1,0.2,2.2,0.3,3.3,0.5c3.1,0.4,6.3,0.7,9.6,1c0-0.9,0.2-1.6,0.1-2.3c-0.4-4.8-1-9.7-1.3-14.5c-0.2-2.9-0.5-5.8,0.5-8.6
		c0.7-2.2,1.8-3,4.1-2.9c1.2,0.1,2.4,0.4,3.4,0.9c4.3,2.2,8.5,4.5,12.7,6.7c2,1.1,4,2.2,6.1,3.3c0.2-0.4,0.4-0.6,0.5-0.8
		c0.6-2.7,1.2-5.5,1.6-8.2c0.3-2.3,1.3-3.8,3.6-4.6c3.9-1.3,5.7-4.2,5.9-8.1c0.1-1.4,0.2-2.9,0-4.3c-1.1-7.1-2.2-14.2-3.5-21.2
		c-1-5.5-1.4-10.9-0.2-16.4c0.6-2.6,2-4.3,4.4-4.7c2.2-0.4,4.6-0.5,6.9-0.3c4.2,0.5,7.6,2.8,10.9,5.2c2.3,1.7,4.6,3.4,7,5.3
		c0.2-0.6,0.4-0.9,0.5-1.3c0.8-2.4,1.4-4.9,2.4-7.3c2.9-6.8,7.9-11.6,15-13.9c1.5-0.5,3.3-0.7,4.9-0.6c3.6,0.4,6.1,2.7,7.5,6
		c1.2,2.9,2.4,5.7,3.6,8.8c6.2-7.3,12.3-14.4,18.4-21.5c-2.8-3.7-5.6-7.3-8.4-11c0.1-0.2,0.2-0.3,0.3-0.5c10,1.2,19.6,4.1,29.2,7.9
		c1.5-2.3,3.1-4.4,4.5-6.6c3.1-4.8,6.6-9.4,10.7-13.5c8.6-8.8,18.7-15.6,29.9-20.9c3.5-1.6,7.1-2.3,11-1.8c5.4,0.7,9.1,3.6,10.9,8.8
		c0.4,1.1,0.7,2.3,1,3.5c0.4,1.6,1.2,2.9,2.6,3.9c7.5,5.1,15.1,10.2,22.6,15.3c2.1,1.4,4.1,1.4,6.3,0.4c6-2.8,9.7-9.1,9.3-15.7
		c-0.1-1.8-0.1-3.5-0.1-5.3c0-0.4,0.3-0.7,0.8-1.6c1.7,4.5,3.2,8.4,4.6,12.4c0.2,0,0.3,0,0.5-0.1c2.9-10.2,5.8-20.5,8.7-31
		c7.4,6.1,13.4,12.9,19,20.2c13.9-14.3,29.9-24.6,48.7-30.9c0.5,4.4,0.9,8.5,1.4,12.6c0.2,0,0.4,0,0.5,0.1c0.6-1.2,1.2-2.4,1.8-3.6
		c1.8-3.5,3.6-7,5.3-10.5c0.5-1,1.2-1.7,2.3-1.9c8.8-1.8,17.8-3,26.8-3c1.1,0,1.9,0.3,2.2,1.4c0.8,2.6,1.7,5.1,2.5,7.7
		c0.5,1.8,0.8,3.8,1.3,5.6c0.4,1.6,0.9,1.9,2.6,1.9c2.2,0.1,4.3,0.1,6.5,0.2c2.9,0.1,5.7,0.3,8.6,0.5c2.9,0.2,5.4,1.2,7,3.9
		c0.1,0.2,0.3,0.3,0.6,0.4c0.2-0.2,0.4-0.3,0.5-0.5c4.4-8.3,10.6-15.1,18.3-20.6c0.4-0.3,0.6-0.7,0.9-1c0.5,0,1,0,1.4,0
		c0.3,0.2,0.5,0.4,0.8,0.5c2.3,0.7,3.4,2.2,3.7,4.7c0.4,3,1.2,5.9,1.9,9c0.7-0.3,1.2-0.6,1.7-0.8c5.7-3.1,11.4-6.2,17.1-9.1
		c1.2-0.6,2.6-0.9,3.9-1c2-0.1,3.1,0.7,3.7,2.7c0.4,1.4,0.8,2.8,0.7,4.2c-0.3,4.9-0.7,9.7-1.1,14.5c-0.2,2.2-0.6,4.5-0.2,6.8
		c4.6-0.6,8.8-1.1,13.1-1.7c2-0.3,3.5,0.4,4.3,2.3c0.7,1.8,1.1,3.8,1.7,5.7c0.1,0.5,0.3,1,0.4,1.2c2.7-2.5,5.2-5,7.9-7.4
		c2.7-2.5,5.5-4.8,8.4-7.4c0.4,1.3,0.8,2.3,1,3.3c0.6,2.6,1.2,5.1,1.8,7.7c0.6,2.4,0.8,2.5,3.3,2.6c4.9,0.2,9.7,0.4,14.6,0.7
		c3.4,0.2,6,1.7,7.5,4.8c1.5,3.1,2.8,6.2,4.2,9.4c0.7,1.6,1.2,3.3,1.9,5.2c1.4-2.5,2.7-4.7,4.1-7.3c1.8,4.5,3.4,8.6,5,12.9
		c2.1-0.9,3.9-1.8,6.1-2.8c0.4,4.6,0.9,8.7,1.1,12.8c0.2,4.5,0.5,9.1,0.2,13.6c-0.3,4.5-0.9,8.8,1.5,13c0.4,0.6,0.4,1.4,0.7,2
		c0.5,1.4,1,2.7,1.7,4.5c1.5-2.6,2.7-4.8,4.1-7.3c1.7,4.5,3.3,8.5,5,12.8c2.2-0.9,4.2-1.7,5.9-3c5.2-3.7,10.3-7.6,15.5-11.3
		c2.3-1.7,4.7-3.4,7.1-4.8c4-2.3,8.3-2.9,12.7-1.8c2.1,0.5,3.9,1.6,4.3,4c0.5,2.9,1.2,5.9,1,8.8c-0.3,4.7-1.3,9.3-2,14
		c-0.9,5.7-2.1,11.3-2.5,17c-0.5,6.3,1.2,9.5,6.5,11.4c1.7,0.6,2.5,1.8,2.8,3.5c0.5,2.7,1.1,5.5,1.6,8.2c0.1,0.5,0.3,1,0.6,1.6
		c0.6-0.3,1-0.5,1.4-0.7c5.9-3.2,11.7-6.5,17.7-9.4c4.2-2.1,7.2-0.6,7.7,4.4c0,0.1,0,0.2,0,0.2c-0.1,3.3-0.1,6.5-0.4,9.8
		c-0.3,3.7-0.7,7.5-1,11.2c-0.1,0.6,0.1,1.2,0.2,1.9c4.2-0.5,8.3-0.9,12.3-1.4c3.3-0.4,4.5,0.2,5.6,3.3c1.8,5.1,2.1,10.3,1.1,15.6
		c-1.3,6.6-2.8,13.1-4.3,19.6c-0.7,3-0.3,5.8,2.1,8.3c1.5-1,3-1.9,4.4-3c1.2-0.9,2.4-1.9,3.3-3.1c1.6-2,3.8-3.2,6.2-3.9
		c3.8-1.1,6.8,0.5,7.7,4.3c0.8,3.5,1.2,7,0.8,10.7c-0.3,2.7-0.1,5.4-0.1,8.3c0.9,0.1,1.8,0.3,2.7,0.4c3.7,0.3,7.2-1.1,10.9-1.5
		c0.7-0.1,1.3-0.1,2.2-0.2c-0.4,1.1-0.8,1.8-0.9,2.6c-0.4,1.8-1.3,3.8-1.1,5.5c0.5,3.6,1.6,7,4.4,9.6c1.1,1,1.4,2.2,1,3.7
		c-1,3.4-1.9,6.8-2.9,10.1c-0.5,1.8-1.3,3.5-2.1,5.7c1.2-0.4,1.9-0.6,2.6-0.9c1.8-0.6,3.6-1.4,5.4-1.9c3.4-1,5.4,0.3,5.8,3.9
		c0.1,1.1,0.2,2.2,0.1,3.3c-0.6,5.4-1.2,10.8-1.8,16.2c-0.2,1.7,0,2.1,1.7,3c1.7,0.8,3.5,1.5,5.1,2.5c2.4,1.4,3.6,3.6,3.5,6.4
		c-0.2,2.5-0.3,5.1-0.7,7.6c-1.7,8.9-3.5,17.7-5.2,26.5c-0.7,3.7-1.4,7.3-2.2,11.5c1.6-0.8,2.7-1.3,3.8-1.9
		c4.8-2.4,9.8-3.8,15.2-3.5c2,0.1,3.3,0.9,4.1,2.7c1.3,2.9,1.5,5.8,0.8,8.9c-0.6,2.6-1.3,5.1-2,7.7c-0.8,2.8-1.6,5.7-2.3,8.5
		c-0.4,1.6-0.4,1.7,1.4,2.5c1.9-3.7,3.7-7.4,5.7-11.2c1.7,1.1,3.1,2.1,4.6,3c0,2.6,0,5.1,0,7.7c-0.9,2.4-1.8,4.8-2.8,7
		c-5.5,11.5-10.3,23.3-14.1,35.5c-0.6,2-1.9,3.6-3.7,4.8c-5.9,3.7-9.1,9.2-10.7,15.8c-0.3,1.2-0.5,2.5,0.5,3.8
		c3.3-1.8,6.6-3.6,9.9-5.4c3.6-1.9,7.1-4,10.8-5.6c3.4-1.5,7-2.3,10.2,0.7c0,3.5,0,7,0,10.6c-0.4,1.8-0.8,3.6-1.3,5.3
		c-1.1,4.4-2.3,8.8-3.5,13.1c-0.1,0.4-0.1,1,0,1.4c0.8,3.1,1.7,6.2,2.6,9.5c-5.4,1.4-11,1.7-16.4,2.4c-1.2,4.5-2.4,8.8-3.5,13.1
		c-0.3,1.3-1.1,2.8-0.7,3.9c0.4,1.1,1.9,1.8,2.9,2.6c0.2,0.2,0.5,0.4,0.7,0.6c0.9,1.1,2.4,2.1,2.6,3.3c0.4,2.1,0.6,4.6-0.1,6.6
		c-2.1,6.1-5,11.9-9.4,16.8c-4.6,5.3-10.1,7.2-17,4.9c-2.6-0.9-5.3-1.6-8.1-2.3c-2.7-0.6-4.9,0.3-6.6,2.4c-1,1.4-1.9,2.9-2.7,4.5
		c-1.6,3.5-1.1,5.9,2,8.2c2.8,2.2,5.8,4.2,8.7,6.3c0.7,0.5,1.4,1.1,2.2,1.7c-4.5,4.2-9.6,7.1-13.9,11.2
		c11.9,3.7,26.4,10.4,29.5,13.8c-10.5,7.6-20.8,15.4-27.7,26.9c2.4,2.2,4.7,4.4,7.1,6.6c-2.5,2.2-4.8,4-6.9,6
		c-5.4,5-9.7,10.8-13.7,16.9c-1.5,2.2-3.1,4.3-5.2,5.9c-3.3,2.6-7.2,3.3-11.3,3.4c-4.4,0.1-8.8,0.1-13.2,0.2c-4.1,0.1-5,1.1-4.2,5.1
		c0.4,1.7,0.8,3.4,1.2,5.1c1,4.9-0.9,8.5-5.8,9c-3.6,0.4-7.1,1-10.7,1.2c-7.5,0.4-14.1,2.6-18.9,8.7c-0.1,0.1-0.3,0-0.8,0.1
		c-2.2-5.8-4.4-11.6-6.6-17.5c-1.9,1.4-3.8,2.8-5.8,4.3c0.2,1,0.6,2,0.8,3.1c0.3,1.8,0.7,3.6,0.7,5.4c0,3.4-1.7,5.5-5,6
		c-3.8,0.6-7.7,1-11.6,1.5c-3,0.3-6.1,0.2-9.1,1.7c2.6,1.2,5.1,2.4,7.5,3.6c2.5,1.2,5.1,2.2,7.4,4c-0.8,0.6-1.4,1-2.1,1.5
		c0.1,0.6,0.3,1,0.3,1.5c0.4,2.4,1,4.9,1.1,7.3c0.1,3.3-1.7,5.2-4.9,5.9c-2.3,0.4-4.6,0.8-6.9,1c-3,0.3-6,0.6-9,0.8
		c-2.6,0.2-4.8,1.6-7.3,2.2c-2.5,0.7-5.3,0.2-7.8,0.7c-5.4,1-9.8,3.8-13.3,8c-0.7,0.9-1.4,1.6-2.7,1.7c-7,0.6-12.6,3.7-17,9.2
		c-0.5,0.6-1.1,1.2-1.8,1.5c-1.4,0.6-2.9,0.9-4.4,1.4c-4.1-4-9-6.3-14.7-7c-0.4-2-0.8-4-1.1-5.8c-2.8-1.9-5.6-3.7-8.2-5.6
		c-3.3-2.4-6.8-3.8-11-2.8c-2,0.5-3.8-0.3-5.2-1.8c-0.6-0.6-1.2-1.2-1.9-1.8c-4.8,4.3-9.4,8.5-13.7,12.3c-3.2-0.4-5.9-0.9-8.7-1
		c-1.3-0.1-2.2-0.5-3-1.5c-2.2-2.9-5.1-5-8.4-6.6c-0.6-0.3-1.3-0.6-2.1-1c0.9-1.6,1.6-3.1,2.5-4.5c0.5-0.8,0.6-1.4,0.3-2.2
		c-1-2.2-1.9-4.4-3-6.5c-1.4-2.6-3.7-3.3-6.3-2.1c-0.7,0.3-1.3,0.6-1.9,1c-2.9,1.8-5.9,3.6-8.8,5.4c-1.9-0.4-3.7-0.7-5.4-1
		c0.1-4.4,0.2-8.7,0.3-13c0-1.4-0.1-2.9-0.3-4.3c-0.5-3.4-1.2-6.7-1.6-10.1c-0.9-7.4-1.8-14.9-1.8-22.4c0.1-20.5,0-41,0-61.4
		c0-0.9,0-1.8-0.1-3.1c-1,0.7-1.6,1.1-2.2,1.5c-6,4.4-11,9.8-16.4,14.7c-6,5.5-13,9.5-20.8,12c-5.4,1.7-10.9,2.4-16.4,3.2
		c-7,1-14,0.7-21.1,0.7c-0.7,0-1.4-0.2-2.1-0.3c-4.5-0.8-8.5-2.7-12.3-5.1c-10.9-7-21.7-14.1-32.6-21.1c-0.6-0.4-1.2-0.6-2.2-1.2
		c0.2,4.4,0.2,8.3,0.5,12.2c0.7,9.1,1.7,18.1,2.4,27.2c0.5,6.7,0.9,13.4,1,20.1c0.2,8.5,0,17,0,25.4c0,0.7-0.1,1.4-0.1,2.1
		c-0.9-0.3-1.3-0.1-1.3,0.8c0,1.5-0.2,3-0.3,4.4c-0.2,0.1-0.3,0.2-0.5,0.3c-2.2-3.9-5-7-9.3-8.4c-4.5-1.4-8.6-0.6-12.8,2
		c0,3.7,0,7.5,0,11.4c-0.6-0.1-0.9-0.2-1.2-0.3c-0.2,1.8-0.4,3.6-0.7,5.9c-2-2.8-3.4-5.5-6.3-6.9c-1.9,2.4-3.7,4.7-5.6,6.9
		c-3.2,3.8-6.6,7.4-11.9,8.2c-0.2,0.6-0.3,1.2-0.6,2.1c-1.8-2.9-3.3-5.4-6.1-6.9c-0.3,0.3-0.6,0.6-0.8,0.9c-2.4,2.9-4.8,5.8-7.2,8.6
		c-1.7,2-3.8,3.7-6.3,4.7c-1.1,0.4-2.2,1.1-3.5,0.4c-0.5-3.5-0.3-7.2-1.6-11.1c-0.6,1-1,1.6-1.4,2.3c-0.8,1.2-1.5,2.4-2.4,3.5
		c-1.1,1.4-2.4,2.8-3.6,4.2c-1.8,2.1-3.5,4.4-5.4,6.4c-2.5,2.7-5.4,5-9.3,5.4c-1.4-1.7-0.6-3.8-1-5.6c-0.4-1.8-0.2-3.8-1-5.7
		c-1.7,1.3-1.5,3.6-3.8,4.7c0.4-4.8,0.8-9.2,1.3-14.1c-0.9,0.8-1.6,1.2-2.2,1.8c-2.9,2.6-5.5,2.8-8.7,0.6c-1.3-0.9-2.4-2-3.8-3
		c-1.5,1.6-2.9,3.1-4.3,4.7c-2.4,2.6-4.8,5.4-7.3,7.9c-2.9,2.9-5.9,3.1-9.2,0.6c-1.1-0.9-2.2-1.9-3.2-2.9c-0.8-0.8-1.7-1.2-2.8-1
		c-2.6,0.4-4.9,1.4-6.5,3.7c-0.5,0.8-1.1,1.6-1.6,2.4c-1.5,1.9-3,3.8-5.3,5.4c-2.9-16.5,0.3-31.6,9.3-45.5c-2.2,0.1-4.2,0.4-6,0.2
		c-1.9-0.3-3.7-1.2-5.7-1.9c0.2,7.9-1,15.4-4,23.1c-0.4-0.9-0.6-1.3-0.8-1.7c-0.7-1.9-1.4-3.7-2.2-5.6c-1.3-3-2.9-4-6.2-3.9
		c-0.6,0-1.3,0.1-1.9,0.2c-2.7,0.7-5.2,0-7.6-1.3c-3.2-1.8-3.9-1.8-6.5,0.6c-0.4,0.3-0.7,0.7-1,1c-1.9,1.6-3.9,3.2-5.9,4.9
		c-3.7-2.9-6.1-6.6-8.6-10.4c-0.2,0.8-0.2,1.5-0.2,2.2c-0.1,1.4-0.8,2.3-2,2.7c-1.1,0.3-1.7-0.1-2.6-1.6c-2.9-5.2-5.8-10.3-8.7-15.4
		c-0.3-0.6-0.8-1.1-1.2-1.7c-2.6,1.3-4.7,3-7.8,3.9c1.2-1.8,2-3.1,2.9-4.4c-1.4-2-2.3-4.2-3.9-6.1c-0.8,2-1.6,3.7-2.3,5.5
		c-0.2,0.6-0.3,1.2-0.3,1.9c0.2,4.7,0.5,9.4,0.8,14.5c-2.6,1.3-5.3,2.7-8.2,4.1c-2-3.6-3.9-6.9-5.8-10.1c-1.1,0-2-0.2-2.8,0
		c-1.6,0.4-2.3-0.4-3-1.6c-1-1.8-2.1-3.5-3.1-5.3c-2.3,0.7-2.7,1.3-2.6,3.2c0.1,1.2,0.2,2.3,0.4,3.8c-2.1-0.2-3.9-0.4-5.7-0.6
		c-2.4-0.3-2.3-0.4-2.6-2.8c-0.7-4.8-0.6-9.7-0.6-14.6c0-1-0.1-1.9-0.2-2.9c-0.4-4.8-2.8-8.8-4.9-12.9c-1.5-2.9-2.8-5.9-3.5-9.1
		c-1.2-5.5-6.1-8.5-11.6-7.3c-4.6,1.1-7.6,3.9-9.2,8.3c-0.7,2.1-1.2,4.3-1.9,6.4c-0.1,0.4-0.5,0.8-1,1.6c-0.4-1.2-0.6-2-0.8-2.7
		c-1-4.2-1.9-8.4-2.9-12.6c-0.4-1.7-1.1-3.3-2.3-4.7c-2.5-3-3.6-6.5-3.2-10.4c0.4-3.2,0.5-6.5,0.7-9.8c0-0.1,0.1-0.3,0.2-0.4
		c0.6-0.1,1.3-0.1,2-0.2c-0.4-2.3-1.5-3.6-3.7-4c-0.9-0.2-1.7-0.8-2.6-1.3c0.9-2.2,1.6-4.2,2.4-6.2c-2.9-0.6-3.3-0.9-4.2-3.6
		c-0.4-1.4-0.8-2.8-1-4.2c-0.6-4.2-1.2-8.4-1.7-12.6c-0.1-1.2-0.7-1.9-1.7-2.7c-2.6-2-5-4.2-7.5-6.3c-0.5-0.4-1-1.2-1-1.8
		c-0.1-2.4-0.5-4.8,0.3-7.1c0.3-1,0.3-2,0.5-3.1c0.3-1.6,0.7-3.3,1.1-4.9c0.4-1.6,0.9-3.2,1.4-4.9c-1.4,0-2.5-0.1-3.6,0
		c-3.7,0.3-6.7-1.1-9.4-3.4c-1-0.9-1.9-1.9-2.8-2.9c-4-4.5-6.5-9.8-8.7-15.4c-1-2.5-0.5-5-0.4-7.6c0-0.4,0.4-0.9,0.7-1.2
		c0.8-0.9,1.5-2,2.6-2.5c3.4-1.5,3.5-3.8,2.4-7c-1.4-4.2-2.4-8.6-3.6-12.9c-6.9-0.6-13.7-1.4-20.3-3.1c-0.7-1.6-0.2-2.8,0.9-3.8
		c1.5-1.3,3-2.7,4.6-3.8c1.2-0.9,1.5-1.7,0.8-3C4.5,460.7,2.3,461,0,461.3z M310.3,387c-0.9,1.9-1.5,3.5-2.3,5.1
		c-4.4,9.5-6.4,19.5-6.5,29.9c0,1.9-0.2,3.8-0.4,5.7c-0.8,7.3-1.3,14.6,0.1,21.9c2.6,13.5,5.6,26.9,9.6,40
		c3.5,11.6,7.5,23.1,11.5,34.5c1.5,4.2,3.5,8.3,5.7,12.1c5.9,10.5,14.3,18.8,24,25.7c8.1,5.7,16.2,11.4,24.4,17
		c7.1,4.8,14.2,9.5,21.5,14c7.2,4.4,15,6.6,23.5,6.3c4.1-0.2,8.3-0.4,12.4-0.9c12.4-1.4,23.2-6.3,32.1-15.1c3.8-3.8,7.3-7.8,11-11.7
		c4.6-4.9,9.3-9.6,14-14.5c2.5-2.7,5-5.4,7.5-8.1c5.6-6.3,9.3-13.7,11.9-21.7c3.2-9.6,5.3-19.4,7.2-29.3c2.6-13.2,5.1-26.5,7.6-39.7
		c0.6-3.1,1.2-6.2,1.8-9.9c-5.2,3.3-10.5,4.7-16.3,4.3c4.6,1.8,9.2,2.1,14.3,0.7c-0.7,0.8-1.1,1.3-1.6,1.7c-1.8,1.5-3.7,3.1-5.6,4.5
		c-3.6,2.7-3.6,2.6-8.1,1.6c-0.1,0-0.2,0.1-0.5,0.2c1.1,0.5,2,1,3.3,1.6c-3.8,2.3-7.6,3.8-11.5,5c-1.8,0.6-3.3,0.3-4.7-0.7
		c-0.8-0.6-1.7-1.2-2.5-1.8c-0.1,0.1-0.2,0.2-0.2,0.3c0.6,0.9,1.2,1.9,1.8,2.8c-0.1,0.1-0.3,0.2-0.4,0.3c-1.6-1.4-3.3-2.7-4.9-4.1
		c-0.1,0.1-0.1,0.1-0.2,0.2c0.9,1.4,1.9,2.8,3,4.5c-1.5,0-2.5,0-3.6,0c-4.6-0.1-9-1.6-13.3-2.8c-5.8-1.7-11.8-3.1-17.9-3.4
		c-1.7-0.1-3.4-0.2-5.1-0.2c3.5-2.1,6.4-4.5,8.1-8.5c-0.5,0.1-0.6,0.1-0.6,0.1c-0.6,0.4-1.2,0.8-1.8,1.1c-4.7,2.9-9.7,4.8-15.4,4.4
		c-1.9-0.1-3.7-0.4-5.5-1.8c10.1,1.5,19.9-3.6,21.4-11c-4.7-1.4-8.9-0.1-13.2,3c3.3-4.7,9.9-7,15.8-5.9c8.9,1.7,17.6,1.7,26.2-1.6
		c6.8-2.6,12.7-6.3,17.1-12.3c0.7-1,1.3-2.1,2-3.2c-5.1-5.5-11.5-7.5-18.5-8.1c9.3-1.4,17.5,1.6,25.6,5.8c-1.7,3.9-3.6,7.4-5.9,10.6
		c-2.4,3.2-5,6.2-7.5,9.3c0.5-0.2,1.1-0.5,1.6-0.8c6.1,6,15.9,7.5,23.5,3.9c1.1-0.5,1.5-1.2,1.7-2.3c0.7-4.6,1.5-9.1,2.3-13.7
		c0.1-0.5,0.2-1.1,0.4-1.6c1-2.6,1.4-5.2,1.2-8c0-0.9,0.1-1.8,0.3-2.6c1.4-5.8,0.4-11.1-3.1-15.9c-0.5-0.7-1-1.5-1.3-2.3
		c-1.3-3.8-3.5-6.8-6.7-9.2c-0.7-0.5-1.3-1.3-1.5-2c-2.4-7.7-10.6-13.9-20.4-12c-1.4,0.3-2.4,0-3.4-1.1c-4.7-5.1-10.4-6.8-17.2-5.6
		c-0.7,0.1-1.6,0-2.3-0.2c-3.5-0.9-6.9-1.8-10.4-2.8c-0.7-0.2-1.5-0.4-2.2-0.6c1.4-7.8-0.2-14.4-4.3-19.8c-0.6-0.8-0.7-1.6-0.4-2.5
		c0.4-1.2,0.7-2.4,1.1-3.7c-5.4-0.6-8-3.8-9.4-8.4c-1.1-3.5-2.4-6.9-3.6-10.4c-0.2-0.5-0.5-1-0.9-1.8c-1.3,2.1-2.5,3.9-3.7,5.7
		c-1.7,2.7-3.5,5.4-5.2,8.1c-0.7,1.1-1.5,1.6-2.8,1.3c-1.3-0.4-1.7-1-1.7-2.8c0-0.3,0-0.6,0-1c0.2-2.8,0.4-5.6,0.6-8.4
		c0.1-1.9,0.2-3.9,0.3-6.3c-2.3,1.9-4.3,3.4-6.2,5.1c-2.9,2.5-4,5.7-3.6,9.4c0.2,1.6,0.4,3.3,0.6,5.1c-10.4-0.8-18.4,3.1-24.1,11.8
		c-1.1-4-1.1-7.8-2-11.4c-1.5,0-1.9,0.8-2.4,1.7c-1.9,3.7-3.9,7.3-5.8,11c-3.6,6.8-10,10.2-18.6,9.4c-2.1-0.2-4.3-0.5-6.4,0.2
		c-1.3,0.4-2.4,1.1-3.1,2.4c-1.9,3.4-3.5,4.1-7.4,3.7c-2.4-0.2-4.8,0.4-7.2,1.1c1.8,4.1,2.1,6.1,1.2,9.7
		c-8.1,1.5-15.5,4.8-22.1,10.1c-0.9-0.7-1.6-1.3-2.4-1.9c-3.7,1.8-7.3,3.6-11.1,5.4C312,390.2,311.3,388.8,310.3,387z M640.2,527.9
		c0-1.9,0.1-3.8,0-5.7c-0.4-3.9-0.6-7.8-1.4-11.6c-1.1-5.1-2.6-10-4.3-15c-4.9-14.4-13.6-25.9-26.4-34.2c-7.1-4.7-14.9-7.6-23.5-8.2
		c-6.4-0.4-12.6,0.8-18.6,2.7c-9.9,3.1-17.9,9-24.6,16.8c-1.9,2.2-3.5,4.8-5,7.3c-0.6,0.9-0.8,2.3-0.7,3.4c0.2,1.6,1.7,2.2,3,1.2
		c0.8-0.6,1.5-1.4,2.1-2.3c4.8-7,10.9-12.7,18.5-16.7c8-4.3,16.6-6.4,25.6-5.6c11.5,1.1,21.4,6.2,29.7,14.1
		c6,5.7,10.3,12.5,13.7,20.1c5.4,12.2,7.4,25.1,6.6,38.3c-0.5,7.7-2.1,15.3-4.7,22.7c-4.3,12-11,22.3-21.5,29.8
		c-9.8,7-20.6,10.5-32.7,8.9c-8.4-1.1-16.1-4.1-22.8-9.2c-7.7-5.9-13.5-13.3-17.9-21.9c-2.7-5.3-4.5-10.9-5.9-16.7
		c-0.3-1.3-1.1-2.4-1.8-3.5c-0.2-0.4-1-0.7-1.4-0.6c-2.7,0.6-4,1.9-3.2,4.5c0.4,1.3,0.8,2.6,1.1,3.9c1.6,6.3,3.7,12.3,7,18
		c1.6,2.7,3.2,5.3,5.3,7.7c1,1.1,2.1,2,3,3.1c6.3,7.6,13.6,14,22.8,17.8c8.6,3.6,17.6,5.3,26.9,3.5c11.3-2.2,21-7.5,29.1-15.6
		c5.8-5.7,10.2-12.4,13.8-19.7C637.6,553.2,640.3,540.9,640.2,527.9z M190.1,528.9c0,1.1-0.1,2.3,0,3.4c0.6,4.8,1.1,9.7,1.9,14.5
		c1.8,11,6,21,12.6,30c4.1,5.7,9.2,10.3,15,14.3c10,6.9,20.9,10.9,33.3,9.6c15-1.6,27.4-8,37.3-19.4c9.7-11.3,15.5-24.3,17.3-39
		c0.2-1.3,0.4-2.7,0.4-4c0.1-1-0.4-2.1-1.4-2.2c-0.7-0.1-1.7,0.2-2.3,0.7c-0.6,0.5-1,1.4-1.3,2.2c-0.5,1.8-0.8,3.6-1.1,5.4
		c-2.4,15.2-8.9,28.1-20.7,38.1c-11.1,9.3-23.7,13.7-38.4,11.6c-14-2-24.9-9.1-33.3-20.2c-7-9.2-11.2-19.7-13-31.1
		c-0.6-3.9-0.9-7.9-1-11.9c0-3.1,0.5-6.2,0.8-9.3c0.5-6,1.8-11.8,4-17.4c5-12.9,13.3-23.2,25.1-30.5c9.2-5.6,19.2-7.4,29.9-6.1
		c10.6,1.3,19.8,5.4,27.3,13c1,1,2.1,2,3.2,2.8c1.5,1.2,2.5,1,3.5-0.7c1-1.6,0.9-2.6-0.6-4c-3.1-2.8-6.2-5.6-9.5-8
		c-8.3-6.3-17.8-9.6-28.2-10c-4.6-0.2-9.1,0.6-13.5,1.7c-10,2.5-18.7,7.3-26,14.6c-6.2,6.1-11,13.3-14.5,21.3
		C192.7,507.9,190.4,518.1,190.1,528.9z"/>
	<path d="M245.8,697.3c0.5,0.8,0.6,1.5-0.6,2.1C245.5,698.5,245.7,697.9,245.8,697.3z"/>
	<path d="M390.8,450c-3.9-2.7-8-3.8-12.7-2.5c1,7.1,11.6,12.7,21,11c-4,3.5-12.4,2.1-22.5-3.8c0,1.5,0.8,3,2.8,4.8
		c1.5,1.3,3.1,2.3,4.9,3.6c-1.9,0.1-3.6,0.2-5.4,0.2c-6.1,0.3-12,1.7-17.8,3.4c-4.4,1.3-8.7,2.8-13.3,2.8c-1,0-2,0-3.4,0
		c1.2-1.8,2.1-3.2,3.1-4.6c-1.9,1.3-3.3,2.9-5.6,3.6c0.6-0.9,1.2-1.9,1.8-2.8c-0.1-0.1-0.2-0.1-0.3-0.2c-1.1,0.8-2.2,1.5-3.3,2.2
		c-1,0.7-2,0.8-3.2,0.5c-4.2-1.2-8.2-2.8-12.1-5.2c1.2-0.6,2.1-1.1,3.2-1.7c-0.3-0.1-0.3-0.2-0.4-0.1c-4.7,1-4.7,1-8.5-1.8
		c-2.3-1.7-4.4-3.6-7-5.7c2.9,0.2,5.2,0.6,7.5,0.5c2.3-0.1,4.7-0.4,6.9-1.6c-6.8,0.6-12.7-1.4-17.9-5.6c9.4,4.8,18.1,4.1,26.4-2.8
		c0.4,0.2,0.9,0.5,1.8,1.1c-0.3-0.5-0.3-0.7-0.4-0.8c-5.5-5-9.4-11.1-12.6-17.6c-0.2-0.5-0.5-1-0.7-1.5c4.4-3.5,18.1-8.2,25.5-6
		c-7.1,0.5-13.5,2.5-18.5,8c1.2,2.5,2.8,4.6,4.7,6.5c5.9,5.9,13.2,9.1,21.2,11c6.6,1.5,13,0.7,19.5-0.3
		C381.6,443.7,386.7,445.4,390.8,450z"/>
	<path d="M396.8,404.6c2.7,6.8,3.1,13.6,2.5,20.9c-1-0.5-1.7-0.8-2.4-1.1c-12.6-6.1-25.2-12.1-38.2-17.2c-6.4-2.5-12.9-4.8-19.6-6.1
		c-4.9-1-9.8-0.6-14.3,1.5c-4.2,2-8.2,4.3-12.2,6.5c-1.6,0.9-3.1,2-5,3.3c0.3-0.6,0.3-0.9,0.5-1c5.5-6,11.4-11.5,18.4-15.7
		c4.7-2.8,9.6-4.9,15.2-4c2.6,0.4,5.2,1,7.7,1.7c8.7,2.5,17.5,5.1,26.2,7.7C382.3,403.2,389.3,405.1,396.8,404.6z"/>
	<path d="M529.3,412.2c-1.1-0.7-2.2-1.5-3.3-2.2c-4.1-2.3-8.1-4.8-12.3-6.9c-5.5-2.8-11.3-3.1-17.3-1.7c-7.9,1.9-15.5,4.6-22.9,7.8
		c-11.2,4.9-22.2,10.1-33.4,15.2c-0.6,0.3-1.3,0.6-1.9,0.9c-1.6-4.1-0.4-16,2.3-20.7c7.9,0.5,15.4-1.8,22.9-4.1
		c4.3-1.3,8.5-2.7,12.8-3.9c5.8-1.6,11.6-3.2,17.3-4.7c4.4-1.1,8.6-0.5,12.6,1.3c3.8,1.7,7.4,3.8,10.6,6.5c4,3.4,7.8,7.1,11.6,10.7
		c0.4,0.4,0.7,0.9,1.1,1.4C529.5,412.1,529.4,412.1,529.3,412.2z"/>
	<path d="M463.3,554.7c-3.1,1.1-5.9,1.3-8.7,0.9c-2.8-0.4-5.5-0.9-8.3-1.4c-2.6-0.4-5.1,0-7.6,0.7c-4.2,1.2-8.5,2.4-12.8,3.3
		c-6.5,1.3-12.9,0.7-19.2-0.9c-2.9-0.8-5.9-1.5-8.8-2.5c-3.6-1.1-7.1-0.6-10.7,0c-2.7,0.4-5.4,0.9-8.1,1.1c-1.6,0.1-3.3-0.2-4.8-1.1
		c4.4,0.2,8.3-1.3,12.3-2.7c4.7-1.7,9.4-1.9,14.4-0.7c6.1,1.5,12.3,3.1,18.7,2.6c4.6-0.4,9.2-1.3,13.7-2c0.8-0.1,1.6-0.3,2.3-0.5
		c5-1.7,9.9-1.1,14.8,0.7c1.9,0.7,3.7,1.4,5.7,1.9C458.5,554.3,460.7,554.4,463.3,554.7z"/>
	<path d="M399.9,571.3c12.3,7.6,24.6,6.8,37.2-0.4C428.1,581.1,410,582.7,399.9,571.3z"/>
	<path d="M414.8,526.8c-2-1.7-4.3-2.1-6.9-2.2c-2.8-0.1-5-1.4-6.5-3.8C406.1,518,412.7,520.9,414.8,526.8z"/>
	<path d="M427.3,540.6c-4.4,3.6-13.5,3.4-17.2,0.1c2.9,0.3,5.7,0.7,8.5,0.7C421.4,541.4,424.2,540.9,427.3,540.6z"/>
	<path d="M421.6,526.5c1.3-4.5,7.5-7.2,12.6-5.4c-2.3,0.6-4.7,1-6.8,1.9C425.2,523.9,423.4,525.4,421.6,526.5z"/>
</g>
</svg>
